<svg xmlns="http://www.w3.org/2000/svg" width="24" height="24" fill="none">
    <path fill="currentColor"
          d="M12 18.5c-2.3 0-4.3-2-4.3-4.3 0-.4.4-.7.8-.7s.8.3.8.8a2.7 2.7 0 1 0 5.4 0c0-.5.4-.8.8-.8s.8.3.8.8c0 2.3-2 4.2-4.3 4.2ZM5.2 6.4l-.5-.2a.8.8 0 0 1 0-1.1l3.6-3.6c.3-.3.8-.3 1 0 .3.3.3.7 0 1L5.7 6.2l-.5.2ZM18.8 6.4c-.2 0-.4 0-.5-.2l-3.6-3.7a.8.8 0 0 1 0-1c.2-.3.7-.3 1 0L19.3 5c.3.3.3.8 0 1-.1.2-.3.3-.5.3Z"/>
    <path fill="currentColor"
          d="M20.2 10.6H4c-.7 0-1.5 0-2-.6-.5-.4-.8-1.1-.8-2.2 0-2.7 2-2.7 3-2.7h15.6c1 0 3 0 3 2.7 0 1-.3 1.8-.7 2.2-.5.6-1.2.6-1.9.6Zm-16-1.5H20l1-.1c0-.1.2-.3.2-1.2 0-1-.2-1.2-1.4-1.2H4.2c-1.2 0-1.5.1-1.5 1.2C2.8 8.7 3 9 3 9L4 9h.2Z"/>
    <path fill="currentColor"
          d="M14.9 22.8h-6c-3.6 0-4.4-2.2-4.7-4L2.8 10c-.1-.4.2-.8.6-.8.4-.1.8.2.8.6l1.4 8.6c.3 1.8 1 2.8 3.3 2.8h6c2.6 0 2.8-1 3.2-2.7l1.7-8.7c0-.5.4-.7.8-.6.4 0 .7.4.6.8L19.5 19c-.3 2-1 3.9-4.6 3.9Z"/>
</svg>