<svg width="40" height="36" viewBox="0 0 40 36" fill="none" xmlns="http://www.w3.org/2000/svg">
<path d="M20.0003 23.8333C19.8198 23.8333 19.6705 23.7743 19.5524 23.6562C19.4344 23.5382 19.3753 23.3888 19.3753 23.2083V18.625H14.792C14.6114 18.625 14.4621 18.5659 14.3441 18.4479C14.226 18.3298 14.167 18.1805 14.167 18C14.167 17.8194 14.226 17.6701 14.3441 17.552C14.4621 17.434 14.6114 17.375 14.792 17.375H19.3753V12.7916C19.3753 12.6111 19.4344 12.4618 19.5524 12.3437C19.6705 12.2257 19.8198 12.1666 20.0003 12.1666C20.1809 12.1666 20.3302 12.2257 20.4482 12.3437C20.5663 12.4618 20.6253 12.6111 20.6253 12.7916V17.375H25.2087C25.3892 17.375 25.5385 17.434 25.6566 17.552C25.7746 17.6701 25.8337 17.8194 25.8337 18C25.8337 18.1805 25.7746 18.3298 25.6566 18.4479C25.5385 18.5659 25.3892 18.625 25.2087 18.625H20.6253V23.2083C20.6253 23.3888 20.5663 23.5382 20.4482 23.6562C20.3302 23.7743 20.1809 23.8333 20.0003 23.8333Z"/>
</svg>
