<svg width="16" height="18" viewBox="0 0 16 18" fill="none" xmlns="http://www.w3.org/2000/svg">
<path d="M13.4702 18C12.7748 18 12.1794 17.7488 11.6838 17.2463C11.1882 16.7437 10.9404 16.14 10.9404 15.435C10.9404 15.33 10.9515 15.2062 10.9736 15.0637C10.9958 14.9212 11.0291 14.79 11.0735 14.67L4.34951 10.71C4.1276 10.965 3.85391 11.1712 3.52843 11.3287C3.20296 11.4862 2.87009 11.565 2.52982 11.565C1.83449 11.565 1.23902 11.3137 0.743412 10.8112C0.247804 10.3087 0 9.705 0 9C0 8.28 0.247804 7.6725 0.743412 7.1775C1.23902 6.6825 1.83449 6.435 2.52982 6.435C2.87009 6.435 3.19556 6.5025 3.50624 6.6375C3.81692 6.7725 4.09801 6.9675 4.34951 7.2225L11.0735 3.3075C11.0291 3.2025 10.9958 3.0825 10.9736 2.9475C10.9515 2.8125 10.9404 2.685 10.9404 2.565C10.9404 1.845 11.1882 1.2375 11.6838 0.7425C12.1794 0.2475 12.7748 0 13.4702 0C14.1803 0 14.7795 0.2475 15.2677 0.7425C15.7559 1.2375 16 1.845 16 2.565C16 3.27 15.7559 3.87375 15.2677 4.37625C14.7795 4.87875 14.1803 5.13 13.4702 5.13C13.1299 5.13 12.8007 5.07375 12.4827 4.96125C12.1646 4.84875 11.8946 4.665 11.6727 4.41L4.94868 8.19C4.97827 8.31 5.00416 8.44875 5.02635 8.60625C5.04854 8.76375 5.05964 8.895 5.05964 9C5.05964 9.105 5.04854 9.2175 5.02635 9.3375C5.00416 9.4575 4.97827 9.5775 4.94868 9.6975L11.6727 13.5675C11.8946 13.3575 12.1535 13.1888 12.4494 13.0613C12.7453 12.9338 13.0855 12.87 13.4702 12.87C14.1803 12.87 14.7795 13.1175 15.2677 13.6125C15.7559 14.1075 16 14.715 16 15.435C16 16.14 15.7559 16.7437 15.2677 17.2463C14.7795 17.7488 14.1803 18 13.4702 18Z" fill="#4F4F4F"/>
</svg>
